<svg xmlns="http://www.w3.org/2000/svg" height="100%" stroke-miterlimit="10" viewBox="0 0 192.756 192.756" width="100%" fill-rule="nonzero" stroke-linecap="round" stroke-linejoin="round" xmlns:v="https://vecta.io/nano"><path d="M184.252 96.379c0-28.73-23.291-52.021-52.02-52.021-12.467 0-23.811 4.363-32.77 11.676 6.834 6.598 12.051 14.859 14.85 24.197h-4.322c-2.709-8.302-7.467-15.627-13.652-21.505a52.11 52.11 0 0 0-2.07 2.086c-3.107 3.313-5.761 7.012-7.9 10.999-1.437 2.678-2.641 5.487-3.593 8.395h-4.323c2.761-9.167 7.819-17.475 14.696-24.136a54.42 54.42 0 0 0-1.768-1.373c-8.638-6.427-19.263-10.34-30.856-10.34-28.729 0-52.021 23.291-52.021 52.021s23.291 52.02 52.021 52.02c12.396 0 23.399-4.369 32.336-11.607-6.781-6.578-11.621-14.956-14.408-24.241h4.323c2.677 8.171 7.337 15.55 13.563 21.48 6.186-5.879 10.943-13.203 13.652-21.506h4.322c-2.799 9.338-8.016 17.6-14.85 24.197a51.51 51.51 0 0 0 32.77 11.676c28.729.001 52.02-23.29 52.02-52.018z" fill="none" stroke="#fff" stroke-width="3"/><g fill-rule="evenodd"><path d="M146.02 108.564l3.592-19.248h4.541l.475 1.897c.814-.95 2.373-1.897 5.016-1.897l-1.422 5.014c-1.289 0-3.729-.337-5.287 5.423l-1.627 8.811h-5.288zm-69.605-24.14h5.234l-1.074 5.1h2.817l-.938 4.16H79.77l-1.477 7.783c-.269 1.477-.134 2.82 2.886 2.35l-.336 3.891c-1.141.738-2.684.941-3.893.941s-5.167-.74-4.159-5.973l3.624-18.252zm22.681 15.568c.604-3.088 2.014-10.736-7.179-10.736-8.456 0-9.529 8.387-9.73 9.594s-.335 9.73 8.723 9.73c2.215.068 5.436-.201 6.712-.873l.805-3.957c-.805.199-3.826.469-5.907.469s-5.434.135-4.831-4.227h11.407zm-27.645-6.173l1.207-3.893c-2.483-.939-4.428-.737-5.167-.737s-7.022-.077-7.985 4.563c-.738 3.557.564 5.028 1.812 5.569 2.014.873 3.155 1.678 4.229 2.215 1.328.664 1.084 2.885-.672 2.885-.806 0-4.294.402-6.911-.471l-.738 3.959c2.416.672 4.36.672 6.174.672 1.274 0 7.515.336 8.386-5.436.426-2.814-.805-4.094-1.812-4.695-1.006-.672-2.684-1.611-3.757-2.082s-1.879-2.28.067-2.817c1.207-.135 3.689-.135 5.167.268zM37.497 108.58l4.361-23.217H33.27l-6.376 14.092-1.007-14.092H17.5l-4.496 23.217h5.233l3.221-16.775 1.41 16.775h4.965l7.315-16.372-3.087 16.372h5.436zm5.769-18.72l-.805 4.16c1.276-.133 4.698-.67 6.509-.604s3.825-.201 3.221 2.684c-1.342.135-10.736-1.342-12.211 6.709-.604 3.961 2.817 5.973 5.501 5.84s3.422-.471 4.362-1.143l.671 1.074h4.897l2.081-10.467c.537-2.617 1.408-8.925-7.381-8.925-1.61.068-3.421 0-6.845.672zm84.818.871c-1.344-.806-2.281-.939-4.027-.939s-5.637 1.667-6.373 6.375c-.873 5.569 2.951 8.319 8.32 6.509l1.543 4.697c-1.744.805-3.49 1.207-6.375 1.207-5.436 0-11.34-4.83-8.656-14.628 1.979-7.219 8.188-9.863 11.811-9.729 4.293.16 5.838 1.61 7.18 3.087l-3.423 3.421zm44.623.805c-1.008-.737-1.609-2.28-4.094-2.28-2.885 0-7.381-.537-9.93 8.186-1.705 5.83 1.744 11.139 5.5 11.139 1.746-.066 3.49-.805 4.562-1.543l.674 1.543h5.635l4.564-24.424h-5.504l-1.407 7.379zm-40.865-1.676l-.807 4.16c1.277-.133 4.697-.67 6.51-.604s3.826-.201 3.221 2.684c-1.342.135-10.736-1.342-12.211 6.709-.605 3.961 2.816 5.973 5.5 5.84s3.422-.471 4.363-1.143l.672 1.074h4.896l2.082-10.467c.537-2.617 1.408-8.925-7.383-8.925-1.609.068-3.421 0-6.843.672z" fill="#fff"/><path d="M88.024 96.503h6.509c.336-1.879-.268-3.49-2.348-3.49s-3.557 1.074-4.161 3.49zM51.32 99.992c-.873-.137-2.819-.672-4.497.469s-2.147 3.152-.402 3.826c1.679.645 4.158-.469 4.496-2.217l.403-2.078zm119.508-.605c.537-1.744.244-3.922-.336-4.695-1.609-2.147-5.312-.45-6.441 3.758-.738 2.75.873 4.83 2.684 4.83 1.947-.001 3.154-1.544 4.093-3.893zm-30.933.605c-.873-.137-2.818-.672-4.496.469s-2.148 3.152-.402 3.826c1.68.645 4.158-.469 4.494-2.217l.404-2.078z" fill="#8b8b8b"/><path d="M99.246 108.58l3.557-19.056h4.496l.469 1.879c.807-.94 2.35-1.879 4.965-1.879l-1.342 5.033c-1.273 0-3.758-.402-5.301 5.299l-1.609 8.725h-5.235v-.001z" fill="#fff"/></g></svg>