<?xml version="1.0" encoding="UTF-8" standalone="no"?>
<!DOCTYPE svg PUBLIC "-//W3C//DTD SVG 1.1//EN" "http://www.w3.org/Graphics/SVG/1.1/DTD/svg11.dtd">
<!-- Created with Vectornator (http://vectornator.io/) -->
<svg height="100%" stroke-miterlimit="10" style="fill-rule:nonzero;clip-rule:evenodd;stroke-linecap:round;stroke-linejoin:round;" version="1.1" viewBox="0 0 842 814" width="100%" xml:space="preserve" xmlns="http://www.w3.org/2000/svg" xmlns:vectornator="http://vectornator.io" xmlns:xlink="http://www.w3.org/1999/xlink">
<defs>
<linearGradient gradientTransform="matrix(1 0 0 1 0 0)" gradientUnits="userSpaceOnUse" id="LinearGradient" x1="49.0372" x2="796.975" y1="409.087" y2="409.087">
<stop offset="0" stop-color="#384dbe"/>
<stop offset="1" stop-color="#00ffff"/>
</linearGradient>
<linearGradient gradientTransform="matrix(1 0 0 1 0 0)" gradientUnits="userSpaceOnUse" id="LinearGradient_2" x1="179.051" x2="471.688" y1="262.638" y2="262.638">
<stop offset="0" stop-color="#384dbe"/>
<stop offset="1" stop-color="#00ffff"/>
</linearGradient>
<linearGradient gradientTransform="matrix(1 0 0 1 0 0)" gradientUnits="userSpaceOnUse" id="LinearGradient_3" x1="179.5" x2="666.5" y1="409" y2="409">
<stop offset="0" stop-color="#384dbe"/>
<stop offset="1" stop-color="#00ffff"/>
</linearGradient>
<linearGradient gradientTransform="matrix(1 0 0 1 0 0)" gradientUnits="userSpaceOnUse" id="LinearGradient_4" x1="374.5" x2="666.5" y1="555.441" y2="555.441">
<stop offset="0" stop-color="#384dbe"/>
<stop offset="1" stop-color="#00ffff"/>
</linearGradient>
</defs>
<g id="Untitled" vectornator:layerName="Untitled">
<g opacity="1" vectornator:layerName="g">
<path d="M388 36.1C343.6 40 298.6 52.9 257 73.6C218.8 92.6 188.5 114.4 158.4 144.4C111 191.7 79.2 247 60.6 314C56.5 328.9 51.6 357.7 50 376C48.7 391 48.7 427.3 50.1 442.5C55.6 506.3 78.7 569.6 115.8 623C133.5 648.4 161.5 678.9 184.1 697.3C244.4 746.4 315.3 775.6 390 782C404.8 783.3 441.2 783.3 456 782C529.7 775.6 598.4 747.8 658.9 699.7C683.1 680.5 711.3 650.1 730.3 622.8C748.6 596.6 766.6 561.3 777.2 531C786.3 504.8 793.7 469.8 796 441.6C797.3 425.4 797.3 391.1 796 376C788.5 289 750.1 206.9 687.6 144.4C653.8 110.7 613.3 83.1 571 65.1C566.9 63.3 562.6 61.5 561.5 60.9C552.6 56.8 518.1 46.1 504.7 43.4C489.9 40.4 468.1 37.1 456.5 36.1C442.6 34.9 401.9 34.9 388 36.1ZM462.5 69.5C477 71.2 493.4 74.2 505.5 77.1C520.7 80.9 546.9 89.7 558.5 95C584.6 106.8 606.3 119.3 625.7 133.7C694.8 184.8 742.6 260.3 758.4 343.5C763.1 368.2 764.4 381.8 764.4 408.5C764.4 461 755 504.7 733.2 553C729.6 561 717.3 583.2 710.7 593.5C668.1 660.4 600.5 712 525 735.3C489.9 746.2 460.9 750.4 422.5 750.4C380.5 750.4 343.9 744.1 307 730.6C192.8 689 109.3 590.9 87.1 472.5C82.9 450 81.6 434.6 81.6 408.5C81.6 382.5 82.8 368.6 87.1 345.5C109.7 224.2 198.2 123.1 315.4 84.5C342.6 75.6 370.1 70.2 401.5 67.6C411.8 66.8 450 67.9 462.5 69.5Z" fill="url(#LinearGradient)" fill-rule="nonzero" opacity="1" stroke="none" vectornator:layerName="path"/>
<path d="M385.5 165.7C381.1 166.4 371.2 169.5 365.5 172.1C342.2 182.5 327.5 205.5 325.4 234.9C324.6 244.8 327.8 260.8 332.5 270.5L335.9 277.5L327 286.5C322.2 291.4 310.8 302.8 301.8 311.7L285.4 328L238.2 328C185.3 328 186.1 327.9 181.4 334.9C179.1 338.4 178.8 339.7 179.2 344.8C179.6 350.8 181.3 354 185.9 357.6C188.4 359.4 190.8 359.5 241 359.8C269.9 360 295.1 359.8 297 359.5C299.9 359 305.3 354.1 329.7 329.8L358.9 300.7L365.7 303.8C379.2 309.9 382.2 310.5 399 310.4C412.9 310.4 415.3 310.1 422.2 307.8C438 302.5 450.6 293.1 459.3 280.2C476.6 254.4 475.7 217.8 457.1 192.7C449.1 181.9 436.1 172.7 422.5 168.4C416 166.3 412.1 165.8 401.5 165.5C394.4 165.3 387.2 165.4 385.5 165.7ZM412.7 199.5C423.3 202.6 430 208.6 435.4 220C438.3 226.1 438.5 227.2 438.5 238C438.5 248.8 438.3 249.9 435.4 256C427.9 271.9 417 278.4 398 278.4C384.7 278.4 378.7 276 369.9 267.1C360.9 258 358.6 252.2 358.6 238C358.5 225.9 360.4 219.9 366.8 211.5C376 199.3 394.9 194.4 412.7 199.5Z" fill="url(#LinearGradient_2)" fill-rule="nonzero" opacity="1" stroke="none" vectornator:layerName="path"/>
<path d="M462.9 346.9C460.5 348.5 437.8 370.5 412.6 395.9L366.7 442L278.8 442C182.2 442 186.5 441.7 181.9 448.1C180 450.9 179.5 452.7 179.5 458C179.5 465.5 181.2 468.6 187.1 471.9C190.7 474 191.6 474 284.7 474L378.7 474L382.1 471.7C384 470.4 406.6 448.4 432.3 422.7L479.1 376.1L567.3 376C648.7 376 655.7 375.8 658.9 374.2C664.6 371.4 666.5 367.9 666.5 360.2C666.5 352.5 664.8 349.5 658.9 346.1C655.3 344 654.4 344 561.3 344L467.4 344L462.9 346.9Z" fill="url(#LinearGradient_3)" fill-rule="nonzero" opacity="1" stroke="none" vectornator:layerName="path"/>
<path d="M547 459.1C545.6 459.6 531.6 473 515.8 488.7L487.1 517.4L480.3 514.2C466.8 508.1 463.8 507.5 447 507.6C433.1 507.6 430.7 507.9 423.8 510.2C405.5 516.3 391.1 528.4 382.8 544.5C376.5 557 374.5 565.6 374.5 580.5C374.6 589.8 375.1 594.3 376.8 600.3C383.9 625.4 401.5 643.2 426.5 650.7C435.1 653.3 460 653.2 468.5 650.6C495.6 642.3 513.3 622.9 518.9 595.3C520.1 589.7 521 582.9 521 580.1C521 571.4 517.3 555.4 513.6 547.7L510.1 540.5L523.3 527.2C530.6 519.8 541.9 508.5 548.5 501.9L560.6 490L607.8 490C659.9 490 659.7 490 664.1 483.9C666 481.1 666.5 479.3 666.5 474C666.5 467.1 665.2 464.4 660.1 460.4C657.6 458.6 655.3 458.5 603.5 458.3C569.7 458.2 548.6 458.5 547 459.1ZM463.6 542.1C471.7 545.1 481.6 555 484.9 563.5C491.1 579.8 486.9 600.9 475.3 611.1C467.8 617.6 453.3 621.8 443.1 620.5C426.1 618.2 417.3 612.1 410.6 598C407.7 591.9 407.5 590.8 407.5 580C407.5 569.8 407.9 567.8 410.1 562.6C413.4 555.3 419.5 548.1 425.5 544.6C435.3 538.8 451.7 537.7 463.6 542.1Z" fill="url(#LinearGradient_4)" fill-rule="nonzero" opacity="1" stroke="none" vectornator:layerName="path"/>
</g>
</g>
</svg>
